<?xml version="1.0" encoding="UTF-8" standalone="no"?>
<svg
   xmlns:dc="http://purl.org/dc/elements/1.1/"
   xmlns:cc="http://creativecommons.org/ns#"
   xmlns:rdf="http://www.w3.org/1999/02/22-rdf-syntax-ns#"
   xmlns:svg="http://www.w3.org/2000/svg"
   xmlns="http://www.w3.org/2000/svg"
   xmlns:sodipodi="http://sodipodi.sourceforge.net/DTD/sodipodi-0.dtd"
   xmlns:inkscape="http://www.inkscape.org/namespaces/inkscape"
   height="512pt"
   viewBox="0 0 512 512"
   width="512pt"
   version="1.1"
   id="svg58"
   sodipodi:docname="css.svg"
   inkscape:version="1.0.2-2 (e86c870879, 2021-01-15)">
  <metadata
     id="metadata64">
    <rdf:RDF>
      <cc:Work
         rdf:about="">
        <dc:format>image/svg+xml</dc:format>
        <dc:type
           rdf:resource="http://purl.org/dc/dcmitype/StillImage" />
      </cc:Work>
    </rdf:RDF>
  </metadata>
  <defs
     id="defs62" />
  <sodipodi:namedview
     pagecolor="#ffffff"
     bordercolor="#666666"
     borderopacity="1"
     objecttolerance="10"
     gridtolerance="10"
     guidetolerance="10"
     inkscape:pageopacity="0"
     inkscape:pageshadow="2"
     inkscape:window-width="1366"
     inkscape:window-height="705"
     id="namedview60"
     showgrid="false"
     inkscape:zoom="0.70733817"
     inkscape:cx="341.33333"
     inkscape:cy="284.7833"
     inkscape:window-x="-8"
     inkscape:window-y="-8"
     inkscape:window-maximized="1"
     inkscape:current-layer="svg58" />
  <path
     d="m184.070312 417.539062h142.976563v64.726563h-142.976563zm0 0"
     fill="#5a5a5a"
     id="path2" />
  <path
     d="m484.878906 426.226562h-458.640625c-14.492187 0-26.238281-11.746093-26.238281-26.238281v-373.28125c0-14.492187 11.746094-26.238281 26.238281-26.238281h458.640625c14.492188 0 26.238282 11.746094 26.238282 26.238281v373.28125c0 14.492188-11.746094 26.238281-26.238282 26.238281zm0 0"
     fill="#ffd86e"
     id="path4" />
  <path
     d="m511.121094 26.710938v373.277343c0 14.492188-11.746094 26.242188-26.238282 26.242188h-32.054687c14.492187 0 26.242187-11.75 26.242187-26.242188v-373.277343c0-14.492188-11.75-26.242188-26.242187-26.242188h32.054687c14.492188 0 26.238282 11.746094 26.238282 26.242188zm0 0"
     fill="#ffb509"
     id="path6" />
  <path
     d="m511.117188 363.011719h-511.117188v36.976562c0 14.492188 11.746094 26.242188 26.238281 26.242188h458.640625c14.492188 0 26.238282-11.75 26.238282-26.242188zm0 0"
     fill="#838383"
     id="path8" />
  <path
     d="m511.121094 363.007812v36.980469c0 14.492188-11.746094 26.238281-26.238282 26.238281h-32.054687c14.492187 0 26.242187-11.746093 26.242187-26.238281v-36.980469zm0 0"
     fill="#5a5a5a"
     id="path10" />
  <path
     d="m511.703125 89.976562h-511.132813v-63.273437c0-14.488281 11.746094-26.234375 26.234376-26.234375h458.660156c14.492187 0 26.238281 11.746094 26.238281 26.234375zm0 0"
     fill="#acacac"
     id="path12" />
  <path
     d="m512 26.230469v63.28125h-32.636719v-63.28125c0-14.484375-11.75-26.230469-26.242187-26.230469h32.640625c14.492187 0 26.238281 11.746094 26.238281 26.230469zm0 0"
     fill="#9c9c9c"
     id="path14" />
  <path
     d="m373.378906 511.601562h-235.640625c-2.839843 0-5.144531-2.304687-5.144531-5.144531v-16.667969c0-11.300781 9.164062-20.460937 20.464844-20.460937h205c11.300781 0 20.460937 9.160156 20.460937 20.460937v16.667969c.003907 2.839844-2.300781 5.144531-5.140625 5.144531zm0 0"
     fill="#838383"
     id="path28" />
  <g
     fill="#5a5a5a"
     id="g40">
    <path
       d="m378.519531 489.785156v16.675782c0 2.839843-2.300781 5.144531-5.140625 5.144531h-18.15625v-21.820313c0-11.292968-9.164062-20.457031-20.460937-20.457031h23.300781c11.296875 0 20.457031 9.160156 20.457031 20.457031zm0 0"
       id="path30" />
    <path
       d="m54.925781 133.582031h-20.523437c-4.257813 0-7.714844-3.453125-7.714844-7.714843 0-4.261719 3.457031-7.714844 7.714844-7.714844h20.523437c4.261719 0 7.714844 3.453125 7.714844 7.714844 0 4.261718-3.457031 7.714843-7.714844 7.714843zm0 0"
       id="path32" />
    <path
       d="m104.351562 133.582031h-23.363281c-4.261719 0-7.714843-3.453125-7.714843-7.714843 0-4.261719 3.453124-7.714844 7.714843-7.714844h23.363281c4.257813 0 7.714844 3.453125 7.714844 7.714844 0 4.261718-3.457031 7.714843-7.714844 7.714843zm0 0"
       id="path34" />
    <path
       d="m149.539062 167.527344h-60.617187c-4.261719 0-7.714844-3.453125-7.714844-7.714844s3.453125-7.714844 7.714844-7.714844h60.617187c4.261719 0 7.714844 3.453125 7.714844 7.714844s-3.453125 7.714844-7.714844 7.714844zm0 0"
       id="path36" />
    <path
       d="m64.105469 167.527344h-29.703125c-4.257813 0-7.714844-3.453125-7.714844-7.714844s3.457031-7.714844 7.714844-7.714844h29.703125c4.261719 0 7.714843 3.453125 7.714843 7.714844s-3.453124 7.714844-7.714843 7.714844zm0 0"
       id="path38" />
  </g>
  <path
     d="m348.242188 374.269531h-96.042969v20.0625c0 8.316407 6.742187 15.058594 15.054687 15.058594h.355469c8.3125 0 15.054687 6.738281 15.054687 15.054687v60.300782c0 9.699218 7.859376 17.5625 17.558594 17.5625 9.699219 0 17.558594-7.863282 17.558594-17.5625v-60.300782c0-8.316406 6.742188-15.054687 15.054688-15.054687h.355468c8.3125 0 15.054688-6.742187 15.054688-15.058594v-20.0625zm0 0"
     fill="#e7e7e7"
     id="path42" />
  <path
     d="m194.667969 327.785156h-.605469c-7.929688 0-14.359375-6.429687-14.359375-14.359375v-44.453125c0-7.929687 6.429687-14.355468 14.359375-14.355468h.605469c7.929687 0 14.359375 6.425781 14.359375 14.355468v44.453125c0 7.929688-6.429688 14.359375-14.359375 14.359375zm0 0"
     fill="#ff5770"
     id="path44" />
  <path
     d="m467.9375 273.847656h-.605469c-7.929687 0-14.359375-6.425781-14.359375-14.355468v-44.453126c0-7.929687 6.429688-14.359374 14.359375-14.359374h.605469c7.929688 0 14.359375 6.429687 14.359375 14.359374v44.453126c0 7.929687-6.429687 14.355468-14.359375 14.355468zm0 0"
     fill="#ff5770"
     id="path46" />
  <path
     d="m209.03125 268.972656v44.457032c0 7.929687-6.429688 14.359374-14.359375 14.359374h-.605469c-2.449218 0-4.753906-.609374-6.769531-1.6875 4.515625-2.425781 7.589844-7.191406 7.589844-12.671874v-44.457032c0-5.484375-3.074219-10.246094-7.589844-12.664062 2.015625-1.089844 4.320313-1.695313 6.769531-1.695313h.605469c7.929687 0 14.359375 6.425781 14.359375 14.359375zm0 0"
     fill="#ff435f"
     id="path48" />
  <path
     d="m482.296875 215.039062v44.449219c0 7.929688-6.429687 14.359375-14.359375 14.359375h-.609375c-2.4375 0-4.738281-.605468-6.757813-1.6875 4.519532-2.425781 7.582032-7.191406 7.582032-12.671875v-44.449219c0-5.480468-3.0625-10.242187-7.582032-12.671874 2.019532-1.078126 4.320313-1.6875 6.757813-1.6875h.609375c7.929688 0 14.359375 6.429687 14.359375 14.359374zm0 0"
     fill="#ff435f"
     id="path50" />
  <path
     d="m174.886719 89.976562v107.859376c0 11.734374 9.511719 21.246093 21.242187 21.246093 11.734375 0 21.246094-9.511719 21.246094-21.246093v-27.246094c0-9.613282 7.796875-17.410156 17.414062-17.410156 9.613282 0 17.410157 7.796874 17.410157 17.410156v139.566406h96.042969v-101.296875c0-9.179687 7.441406-16.621094 16.621093-16.621094 9.179688 0 16.621094 7.441407 16.621094 16.621094v14.535156c0 11.039063 8.949219 19.988281 19.988281 19.988281 11.039063 0 19.984375-8.949218 19.984375-19.988281v-133.417969zm0 0"
     fill="#ff5770"
     id="path52" />
  <path
     d="m421.464844 89.980469v133.414062c0 5.523438-2.242188 10.511719-5.851563 14.132813-3.621093 3.609375-8.621093 5.851562-14.144531 5.851562-3.023438 0-5.90625-.679687-8.476562-1.890625 2.109374-.988281 4.023437-2.335937 5.648437-3.960937 3.609375-3.621094 5.851563-8.609375 5.851563-14.132813v-133.414062zm0 0"
     fill="#ff435f"
     id="path54" />
  <path
     d="m252.199219 309.914062h96.042969v64.597657h-96.042969zm0 0"
     fill="#80e0dc"
     id="path56" />
</svg>
