<?xml version="1.0" encoding="UTF-8" standalone="no"?>
<svg
   xmlns:dc="http://purl.org/dc/elements/1.1/"
   xmlns:cc="http://creativecommons.org/ns#"
   xmlns:rdf="http://www.w3.org/1999/02/22-rdf-syntax-ns#"
   xmlns:svg="http://www.w3.org/2000/svg"
   xmlns="http://www.w3.org/2000/svg"
   xmlns:sodipodi="http://sodipodi.sourceforge.net/DTD/sodipodi-0.dtd"
   xmlns:inkscape="http://www.inkscape.org/namespaces/inkscape"
   width="1440px"
   height="901px"
   viewBox="0 0 1440 901"
   version="1.1"
   id="svg52"
   sodipodi:docname="fondo.svg"
   inkscape:version="1.0.2-2 (e86c870879, 2021-01-15)">
  <metadata
     id="metadata58">
    <rdf:RDF>
      <cc:Work
         rdf:about="">
        <dc:format>image/svg+xml</dc:format>
        <dc:type
           rdf:resource="http://purl.org/dc/dcmitype/StillImage" />
        <dc:title>fondo</dc:title>
      </cc:Work>
    </rdf:RDF>
  </metadata>
  <defs
     id="defs56" />
  <sodipodi:namedview
     pagecolor="#ffffff"
     bordercolor="#666666"
     borderopacity="1"
     objecttolerance="10"
     gridtolerance="10"
     guidetolerance="10"
     inkscape:pageopacity="0"
     inkscape:pageshadow="2"
     inkscape:window-width="1366"
     inkscape:window-height="705"
     id="namedview54"
     showgrid="false"
     showguides="false"
     inkscape:zoom="0.50067234"
     inkscape:cx="563.02707"
     inkscape:cy="425.73675"
     inkscape:window-x="-8"
     inkscape:window-y="-8"
     inkscape:window-maximized="1"
     inkscape:current-layer="svg52"
     inkscape:document-rotation="0" />
  <!-- Generator: Sketch 63.1 (92452) - https://sketch.com -->
  <title
     id="title2">fondo</title>
  <desc
     id="desc4">Created with Sketch.</desc>
  <path
     d="m 211.64866,498.66409 q -0.13943,0 -0.31372,-0.0697 -0.17429,-0.10457 -0.34857,-0.17429 l -12.16524,-8.29606 q -0.488,-0.34857 -0.76686,-0.69715 -0.244,-0.34857 -0.244,-0.83657 v -0.97601 q 0,-0.52286 0.244,-0.83658 0.27886,-0.34857 0.76686,-0.69715 l 12.16524,-8.29606 q 0.17428,-0.0697 0.34857,-0.13943 0.17429,-0.10457 0.31372,-0.10457 0.31371,0 0.52286,0.20915 0.20914,0.17428 0.20914,0.488 v 3.20688 q 0,0.52286 -0.31371,0.80172 -0.27886,0.27886 -0.62744,0.52286 l -8.0172,5.33318 8.0172,5.36804 q 0.34858,0.20915 0.62744,0.48801 0.31371,0.27885 0.31371,0.80172 v 3.20688 q 0,0.31371 -0.20914,0.52286 -0.20915,0.17428 -0.52286,0.17428 z"
     style="font-style:normal;font-variant:normal;font-weight:600;font-stretch:normal;font-size:34.8574px;line-height:1.25;font-family:Rubik;-inkscape-font-specification:'Rubik, Semi-Bold';font-variant-ligatures:normal;font-variant-caps:normal;font-variant-numeric:normal;font-variant-east-asian:normal;opacity:0.85;fill:#ff4c60;fill-opacity:1;stroke-width:1"
     id="path871" />
  <path
     d="m 216.07549,503.26527 q -0.31372,0 -0.52286,-0.244 -0.20915,-0.20914 -0.20915,-0.488 0,-0.17429 0.0697,-0.34858 l 11.85151,-28.44364 q 0.10457,-0.27885 0.34858,-0.52286 0.27886,-0.27886 0.80172,-0.27886 h 2.68402 q 0.31371,0 0.52286,0.24401 0.20914,0.20914 0.20914,0.488 0,0.13943 -0.0697,0.34857 l -11.88638,28.44364 q -0.0697,0.244 -0.34857,0.52286 -0.27886,0.27886 -0.80172,0.27886 z"
     style="font-style:normal;font-variant:normal;font-weight:600;font-stretch:normal;font-size:34.8574px;line-height:1.25;font-family:Rubik;-inkscape-font-specification:'Rubik, Semi-Bold';font-variant-ligatures:normal;font-variant-caps:normal;font-variant-numeric:normal;font-variant-east-asian:normal;opacity:0.85;fill:#ff4c60;fill-opacity:1;stroke-width:1"
     id="path873" />
  <path
     d="m 235.52591,498.66409 q -0.27886,0 -0.488,-0.17428 -0.20914,-0.20915 -0.20914,-0.52286 v -3.20688 q 0,-0.52287 0.27885,-0.80172 0.27886,-0.27886 0.62744,-0.48801 l 8.05206,-5.36804 -8.05206,-5.33318 q -0.34858,-0.244 -0.62744,-0.52286 -0.27885,-0.27886 -0.27885,-0.80172 v -3.20688 q 0,-0.31372 0.20914,-0.488 0.20914,-0.20915 0.488,-0.20915 0.17429,0 0.34858,0.10457 0.17428,0.0697 0.31371,0.13943 l 12.16524,8.29606 q 0.52286,0.34858 0.76686,0.69715 0.244,0.31372 0.244,0.83658 v 0.97601 q 0,0.488 -0.244,0.83657 -0.244,0.34858 -0.76686,0.69715 l -12.16524,8.29606 q -0.13943,0.0697 -0.31371,0.17429 -0.17429,0.0697 -0.34858,0.0697 z"
     style="font-style:normal;font-variant:normal;font-weight:600;font-stretch:normal;font-size:34.8574px;line-height:1.25;font-family:Rubik;-inkscape-font-specification:'Rubik, Semi-Bold';font-variant-ligatures:normal;font-variant-caps:normal;font-variant-numeric:normal;font-variant-east-asian:normal;opacity:0.85;fill:#ff4c60;fill-opacity:1;stroke-width:1"
     id="path875" />
  <path
     d="m 1011.7822,542.90668 q -0.1394,0 -0.3137,-0.0697 -0.1743,-0.10457 -0.3485,-0.17428 l -12.16527,-8.29606 q -0.48801,-0.34858 -0.76687,-0.69715 -0.244,-0.34858 -0.244,-0.83658 v -0.97601 q 0,-0.52286 0.244,-0.83657 0.27886,-0.34858 0.76687,-0.69715 L 1011.12,522.0271 q 0.1742,-0.0697 0.3485,-0.13943 0.1743,-0.10457 0.3137,-0.10457 0.3138,0 0.5229,0.20914 0.2092,0.17429 0.2092,0.488 v 3.20688 q 0,0.52286 -0.3138,0.80172 -0.2788,0.27886 -0.6274,0.52286 l -8.0172,5.33319 8.0172,5.36804 q 0.3486,0.20914 0.6274,0.488 0.3138,0.27886 0.3138,0.80172 v 3.20688 q 0,0.31372 -0.2092,0.52286 -0.2091,0.17429 -0.5229,0.17429 z"
     style="font-style:normal;font-variant:normal;font-weight:600;font-stretch:normal;font-size:34.8574px;line-height:1.25;font-family:Rubik;-inkscape-font-specification:'Rubik, Semi-Bold';font-variant-ligatures:normal;font-variant-caps:normal;font-variant-numeric:normal;font-variant-east-asian:normal;opacity:0.85;fill:#ff4c60;fill-opacity:1;stroke-width:1"
     id="path878" />
  <path
     d="m 1016.2091,547.50786 q -0.3137,0 -0.5229,-0.24401 -0.2091,-0.20914 -0.2091,-0.488 0,-0.17429 0.07,-0.34857 l 11.8515,-28.44364 q 0.1046,-0.27886 0.3486,-0.52286 0.2788,-0.27886 0.8017,-0.27886 h 2.684 q 0.3137,0 0.5229,0.244 0.2091,0.20914 0.2091,0.488 0,0.13943 -0.07,0.34858 l -11.8864,28.44364 q -0.07,0.244 -0.3485,0.52286 -0.2789,0.27886 -0.8018,0.27886 z"
     style="font-style:normal;font-variant:normal;font-weight:600;font-stretch:normal;font-size:34.8574px;line-height:1.25;font-family:Rubik;-inkscape-font-specification:'Rubik, Semi-Bold';font-variant-ligatures:normal;font-variant-caps:normal;font-variant-numeric:normal;font-variant-east-asian:normal;opacity:0.85;fill:#ff4c60;fill-opacity:1;stroke-width:1"
     id="path880" />
  <path
     d="m 1035.6595,542.90668 q -0.2789,0 -0.488,-0.17429 -0.2091,-0.20914 -0.2091,-0.52286 v -3.20688 q 0,-0.52286 0.2788,-0.80172 0.2789,-0.27886 0.6274,-0.488 l 8.0521,-5.36804 -8.0521,-5.33319 q -0.3485,-0.244 -0.6274,-0.52286 -0.2788,-0.27886 -0.2788,-0.80172 v -3.20688 q 0,-0.31371 0.2091,-0.488 0.2091,-0.20914 0.488,-0.20914 0.1743,0 0.3486,0.10457 0.1743,0.0697 0.3137,0.13943 l 12.1652,8.29606 q 0.5229,0.34857 0.7669,0.69715 0.244,0.31371 0.244,0.83657 v 0.97601 q 0,0.488 -0.244,0.83658 -0.244,0.34857 -0.7669,0.69715 l -12.1652,8.29606 q -0.1394,0.0697 -0.3137,0.17428 -0.1743,0.0697 -0.3486,0.0697 z"
     style="font-style:normal;font-variant:normal;font-weight:600;font-stretch:normal;font-size:34.8574px;line-height:1.25;font-family:Rubik;-inkscape-font-specification:'Rubik, Semi-Bold';font-variant-ligatures:normal;font-variant-caps:normal;font-variant-numeric:normal;font-variant-east-asian:normal;opacity:0.85;fill:#ff4c60;fill-opacity:1;stroke-width:1"
     id="path882" />
  <path
     d="m 955.06897,201.22813 q -4.11318,0 -6.90177,-1.35944 -2.75373,-1.35944 -4.2526,-3.83431 -1.46401,-2.47488 -1.81259,-5.71662 -0.0349,-0.488 -0.0697,-1.28972 0,-0.80172 0,-1.70801 0,-0.9063 0,-1.70802 0.0349,-0.80172 0.0697,-1.25486 0.24401,-2.26573 1.11544,-4.25261 0.90629,-1.98687 2.47488,-3.48573 1.56858,-1.53373 3.79945,-2.40517 2.26573,-0.87143 5.22861,-0.87143 3.48574,0 5.92576,0.80172 2.44002,0.80172 3.97374,2.30059 1.56859,1.46401 2.33545,3.48574 0.80172,2.02173 0.94115,4.42689 0.0697,0.76686 0.0697,1.6383 0,0.83657 -0.0349,1.60344 0,0.732 -0.0349,1.18515 -0.10457,1.70801 -0.83658,2.89316 -0.69715,1.18515 -1.84744,1.77773 -1.11544,0.59257 -2.50973,0.59257 -1.1503,0 -1.98688,-0.31371 -0.83657,-0.34858 -1.35943,-0.76686 -0.52287,-0.41829 -0.80172,-0.73201 -0.24401,0.41829 -0.73201,0.94115 -0.488,0.52286 -1.3943,0.87143 -0.87143,0.34858 -2.3703,0.34858 -2.57945,0 -4.07831,-1.8823 -1.49887,-1.91716 -1.49887,-5.22861 0,-3.31145 1.46401,-5.22861 1.46401,-1.91716 4.04346,-1.91716 1.39429,0 2.19601,0.48801 0.80172,0.45314 1.32458,1.11543 v -0.45314 q 0,-0.38343 0.24401,-0.62744 0.244,-0.244 0.59257,-0.244 h 1.60344 q 0.34858,0 0.59258,0.244 0.244,0.24401 0.244,0.62744 v 7.14576 q 0,1.22001 0.52286,1.84745 0.55772,0.62743 1.3943,0.62743 0.80172,0 1.22001,-0.41829 0.41828,-0.41829 0.55771,-0.97601 0.17429,-0.59257 0.17429,-1.08058 0,-0.69714 0.0349,-1.74287 0.0349,-1.04572 -0.0697,-2.16116 -0.13943,-2.68402 -1.15029,-4.46174 -1.01087,-1.81259 -3.13717,-2.68402 -2.09144,-0.87144 -5.61204,-0.87144 -2.92802,0 -4.91489,1.01087 -1.95202,0.976 -3.0326,2.78859 -1.08057,1.77773 -1.35943,4.21774 -0.0697,0.59258 -0.10458,1.67316 0,1.08058 0,2.19602 0.0349,1.08058 0.10458,1.74287 0.41829,3.76459 2.75373,5.85604 2.3703,2.09144 6.90177,2.09144 2.26573,0 3.59031,-0.31371 1.35944,-0.27886 2.1263,-0.76687 0.80172,-0.45314 1.3943,-0.87143 0.27885,-0.20915 0.488,-0.34858 0.20914,-0.13943 0.55772,-0.13943 h 2.19601 q 0.34858,0 0.59258,0.24401 0.27886,0.244 0.244,0.62743 0,0.13943 -0.0697,0.27886 -0.0697,0.10457 -0.13943,0.20914 -0.97601,1.11544 -2.44002,2.05659 -1.42915,0.97601 -3.55546,1.56858 -2.09144,0.59258 -4.9846,0.59258 z m -0.45315,-9.96922 q 1.49887,0 2.19602,-1.01086 0.69714,-1.01087 0.69714,-2.96288 0,-1.95202 -0.69714,-2.96288 -0.69715,-1.04572 -2.19602,-1.04572 -1.46401,0 -2.16116,1.04572 -0.69715,1.01086 -0.69715,2.96288 0,1.18515 0.27886,2.09144 0.31372,0.9063 0.94115,1.3943 0.66229,0.488 1.6383,0.488 z"
     style="font-style:normal;font-variant:normal;font-weight:600;font-stretch:normal;font-size:34.8574px;line-height:1.25;font-family:Rubik;-inkscape-font-specification:'Rubik, Semi-Bold';font-variant-ligatures:normal;font-variant-caps:normal;font-variant-numeric:normal;font-variant-east-asian:normal;opacity:0.85;fill:#ffd15c;fill-opacity:1;stroke-width:1"
     id="path885" />
  <path
     d="m 1278.934,598.96792 q -2.0218,0 -3.6601,-0.62743 -1.6383,-0.62744 -2.7885,-1.91716 -1.1155,-1.25487 -1.7081,-3.13717 -0.5925,-1.8823 -0.5925,-4.39203 0,-1.53373 -0.488,-2.54459 -0.4532,-1.01086 -1.4292,-1.53373 l -0.4183,-0.17428 q -0.9063,-0.52286 -0.9063,-1.3943 v -1.11544 q 0,-0.87143 0.9063,-1.39429 l 0.4183,-0.17429 q 1.0109,-0.55772 1.464,-1.53372 0.4532,-1.01087 0.4532,-2.54459 0,-2.50974 0.5925,-4.39204 0.5926,-1.8823 1.7081,-3.13716 1.1502,-1.25487 2.7537,-1.8823 1.6383,-0.62743 3.66,-0.66229 h 0.2092 q 0.3485,0 0.5577,0.244 0.2091,0.20914 0.2091,0.52286 v 2.68402 q 0,0.34857 -0.2091,0.55772 -0.2092,0.20914 -0.488,0.20914 h -0.1395 q -1.5337,0.10458 -2.4051,0.76687 -0.8715,0.66229 -1.2897,2.05658 -0.3835,1.35944 -0.3835,3.59031 0,2.16116 -0.6971,3.62517 -0.6972,1.46401 -1.8823,2.02173 0.8017,0.34858 1.3594,1.18515 0.5926,0.80172 0.9063,1.95202 0.3137,1.15029 0.3137,2.50973 0,2.19602 0.3835,3.59031 0.3834,1.3943 1.2548,2.02173 0.9063,0.66229 2.4052,0.80172 h 0.1743 q 0.2788,0.0349 0.488,0.244 0.2091,0.20915 0.2091,0.52287 v 2.68402 q 0,0.34857 -0.2091,0.55771 -0.2092,0.20915 -0.5577,0.20915 z"
     style="font-style:normal;font-variant:normal;font-weight:600;font-stretch:normal;font-size:34.8574px;line-height:1.25;font-family:Rubik;-inkscape-font-specification:'Rubik, Semi-Bold';font-variant-ligatures:normal;font-variant-caps:normal;font-variant-numeric:normal;font-variant-east-asian:normal;opacity:0.85;fill:#44d7b6;fill-opacity:1;stroke-width:1"
     id="path888" />
  <path
     d="m 1282.9774,596.07475 q -0.3137,0 -0.488,-0.244 -0.1743,-0.20914 -0.1394,-0.52286 l 0.976,-6.34405 q 0.07,-0.45314 0.3486,-0.80172 0.2788,-0.38343 0.8365,-0.38343 h 3.6601 q 0.2788,0 0.4531,0.20915 0.1743,0.20914 0.1743,0.45314 0,0.24401 -0.07,0.45315 l -2.44,6.23947 q -0.1395,0.34858 -0.4183,0.62744 -0.244,0.31371 -0.8018,0.31371 z m 1.1852,-14.81439 q -0.3835,0 -0.6275,-0.244 -0.244,-0.244 -0.244,-0.62744 v -3.72974 q 0,-0.38343 0.244,-0.62743 0.244,-0.244 0.6275,-0.244 h 3.9388 q 0.3486,0 0.5926,0.244 0.2789,0.244 0.2789,0.62743 v 3.72974 q 0,0.38344 -0.2789,0.62744 -0.244,0.244 -0.5926,0.244 z"
     style="font-style:normal;font-variant:normal;font-weight:600;font-stretch:normal;font-size:34.8574px;line-height:1.25;font-family:Rubik;-inkscape-font-specification:'Rubik, Semi-Bold';font-variant-ligatures:normal;font-variant-caps:normal;font-variant-numeric:normal;font-variant-east-asian:normal;opacity:0.85;fill:#44d7b6;fill-opacity:1;stroke-width:1"
     id="path890" />
  <path
     d="m 1292.7723,566.41111 q 2.0566,0.0349 3.66,0.66229 1.6383,0.62743 2.7538,1.8823 1.1503,1.25486 1.7428,3.13716 0.5926,1.8823 0.5926,4.39204 0,1.56858 0.4532,2.57944 0.488,0.97601 1.464,1.53373 l 0.4183,0.17429 q 0.9063,0.488 0.9063,1.35943 v 1.1503 q 0,0.87143 -0.9063,1.35944 l -0.4183,0.20914 q -1.0109,0.52286 -1.464,1.53373 -0.4532,1.01086 -0.4532,2.50973 0,2.54459 -0.5926,4.42689 -0.5925,1.84744 -1.7428,3.10231 -1.1155,1.25486 -2.7538,1.8823 -1.6034,0.66229 -3.6251,0.66229 h -0.2092 q -0.3486,0 -0.5577,-0.20915 -0.2091,-0.20914 -0.2091,-0.55771 v -2.68402 q 0,-0.31372 0.2091,-0.52287 0.2091,-0.20914 0.488,-0.244 h 0.1394 q 1.5338,-0.10457 2.4052,-0.76686 0.9063,-0.66229 1.2897,-2.02173 0.3835,-1.39429 0.3835,-3.59031 0,-2.19602 0.6971,-3.62517 0.6971,-1.46401 1.8823,-2.05659 -0.7669,-0.38343 -1.3594,-1.18515 -0.5926,-0.80172 -0.9063,-1.91716 -0.3137,-1.15029 -0.3137,-2.54459 0,-2.23087 -0.3835,-3.59031 -0.3834,-1.35944 -1.2548,-2.02173 -0.8715,-0.69714 -2.4052,-0.76686 l -0.1743,-0.0349 q -0.2789,0 -0.488,-0.20914 -0.2091,-0.20915 -0.2091,-0.55772 v -2.68402 q 0,-0.31372 0.2091,-0.52286 0.2091,-0.244 0.5577,-0.244 z"
     style="font-style:normal;font-variant:normal;font-weight:600;font-stretch:normal;font-size:34.8574px;line-height:1.25;font-family:Rubik;-inkscape-font-specification:'Rubik, Semi-Bold';font-variant-ligatures:normal;font-variant-caps:normal;font-variant-numeric:normal;font-variant-east-asian:normal;opacity:0.85;fill:#44d7b6;fill-opacity:1;stroke-width:1"
     id="path892" />
  <path
     d="m 539.4424,816.98757 q -2.02173,0 -3.66003,-0.62743 -1.6383,-0.62743 -2.78859,-1.91716 -1.11544,-1.25486 -1.70802,-3.13716 -0.59257,-1.8823 -0.59257,-4.39204 0,-1.53372 -0.48801,-2.54459 -0.45314,-1.01086 -1.42915,-1.53372 l -0.41829,-0.17429 q -0.90629,-0.52286 -0.90629,-1.3943 v -1.11543 q 0,-0.87144 0.90629,-1.3943 l 0.41829,-0.17429 q 1.01087,-0.55771 1.46401,-1.53372 0.45315,-1.01087 0.45315,-2.54459 0,-2.50973 0.59257,-4.39203 0.59258,-1.8823 1.70802,-3.13717 1.15029,-1.25487 2.75373,-1.8823 1.6383,-0.62743 3.66003,-0.66229 h 0.20914 q 0.34858,0 0.55772,0.244 0.20914,0.20915 0.20914,0.52286 v 2.68402 q 0,0.34858 -0.20914,0.55772 -0.20914,0.20915 -0.488,0.20915 h -0.13943 q -1.53373,0.10457 -2.40516,0.76686 -0.87144,0.66229 -1.28973,2.05659 -0.38343,1.35943 -0.38343,3.59031 0,2.16116 -0.69715,3.62517 -0.69714,1.46401 -1.8823,2.02173 0.80172,0.34857 1.35944,1.18515 0.59258,0.80172 0.9063,1.95201 0.31371,1.1503 0.31371,2.50973 0,2.19602 0.38343,3.59032 0.38343,1.39429 1.25487,2.02173 0.90629,0.66229 2.40516,0.80172 h 0.17429 q 0.27886,0.0349 0.488,0.244 0.20914,0.20914 0.20914,0.52286 v 2.68402 q 0,0.34857 -0.20914,0.55772 -0.20914,0.20914 -0.55772,0.20914 z"
     style="font-style:normal;font-variant:normal;font-weight:600;font-stretch:normal;font-size:34.8574px;line-height:1.25;font-family:Rubik;-inkscape-font-specification:'Rubik, Semi-Bold';font-variant-ligatures:normal;font-variant-caps:normal;font-variant-numeric:normal;font-variant-east-asian:normal;opacity:0.85;fill:#ff4c60;fill-opacity:1;stroke-width:1"
     id="path895" />
  <path
     d="m 543.48583,814.09441 q -0.31372,0 -0.488,-0.244 -0.17429,-0.20915 -0.13943,-0.52287 l 0.976,-6.34404 q 0.0697,-0.45315 0.34858,-0.80172 0.27886,-0.38343 0.83657,-0.38343 h 3.66003 q 0.27886,0 0.45315,0.20914 0.17428,0.20915 0.17428,0.45315 0,0.244 -0.0697,0.45314 l -2.44002,6.23948 q -0.13943,0.34857 -0.41829,0.62743 -0.244,0.31372 -0.80172,0.31372 z m 1.18515,-14.8144 q -0.38343,0 -0.62743,-0.244 -0.244,-0.244 -0.244,-0.62743 v -3.72974 q 0,-0.38344 0.244,-0.62744 0.244,-0.244 0.62743,-0.244 h 3.93889 q 0.34857,0 0.59257,0.244 0.27886,0.244 0.27886,0.62744 v 3.72974 q 0,0.38343 -0.27886,0.62743 -0.244,0.244 -0.59257,0.244 z"
     style="font-style:normal;font-variant:normal;font-weight:600;font-stretch:normal;font-size:34.8574px;line-height:1.25;font-family:Rubik;-inkscape-font-specification:'Rubik, Semi-Bold';font-variant-ligatures:normal;font-variant-caps:normal;font-variant-numeric:normal;font-variant-east-asian:normal;opacity:0.85;fill:#ff4c60;fill-opacity:1;stroke-width:1"
     id="path897" />
  <path
     d="m 553.28073,784.43076 q 2.05659,0.0349 3.66003,0.66229 1.6383,0.62743 2.75373,1.8823 1.1503,1.25487 1.74287,3.13717 0.59258,1.8823 0.59258,4.39203 0,1.56858 0.45315,2.57945 0.488,0.976 1.46401,1.53372 l 0.41828,0.17429 q 0.9063,0.488 0.9063,1.35944 v 1.15029 q 0,0.87144 -0.9063,1.35944 l -0.41828,0.20914 q -1.01087,0.52287 -1.46401,1.53373 -0.45315,1.01087 -0.45315,2.50973 0,2.54459 -0.59258,4.42689 -0.59257,1.84745 -1.74287,3.10231 -1.11543,1.25487 -2.75373,1.8823 -1.60344,0.66229 -3.62517,0.66229 h -0.20914 q -0.34858,0 -0.55772,-0.20914 -0.20915,-0.20915 -0.20915,-0.55772 v -2.68402 q 0,-0.31372 0.20915,-0.52286 0.20914,-0.20915 0.488,-0.244 h 0.13943 q 1.53373,-0.10458 2.40516,-0.76687 0.90629,-0.66229 1.28972,-2.02173 0.38344,-1.39429 0.38344,-3.59031 0,-2.19601 0.69714,-3.62517 0.69715,-1.46401 1.8823,-2.05658 -0.76686,-0.38344 -1.35944,-1.18516 -0.59257,-0.80172 -0.90629,-1.91715 -0.31371,-1.1503 -0.31371,-2.54459 0,-2.23088 -0.38344,-3.59031 -0.38343,-1.35944 -1.25486,-2.02173 -0.87144,-0.69715 -2.40516,-0.76687 l -0.17429,-0.0349 q -0.27886,0 -0.488,-0.20915 -0.20915,-0.20914 -0.20915,-0.55772 v -2.68402 q 0,-0.31371 0.20915,-0.52286 0.20914,-0.244 0.55772,-0.244 z"
     style="font-style:normal;font-variant:normal;font-weight:600;font-stretch:normal;font-size:34.8574px;line-height:1.25;font-family:Rubik;-inkscape-font-specification:'Rubik, Semi-Bold';font-variant-ligatures:normal;font-variant-caps:normal;font-variant-numeric:normal;font-variant-east-asian:normal;opacity:0.85;fill:#ff4c60;fill-opacity:1;stroke-width:1"
     id="path899" />
  <path
     d="m 1238.0724,126.8154 q -0.3137,0 -0.5577,-0.20915 -0.2091,-0.244 -0.1743,-0.55772 l 0.5229,-3.55545 h -2.7189 q -0.3486,0 -0.5926,-0.20915 -0.2091,-0.244 -0.2091,-0.59257 v -2.3703 q 0,-0.34858 0.2091,-0.55772 0.244,-0.244 0.5926,-0.244 h 3.3115 l 0.732,-4.88004 h -3.1372 q -0.3486,0 -0.5926,-0.20914 -0.2091,-0.24401 -0.2091,-0.59258 v -2.3703 q 0,-0.34858 0.2091,-0.55772 0.244,-0.244 0.5926,-0.244 h 3.7298 l 0.5577,-3.59032 q 0.07,-0.27885 0.244,-0.488 0.2091,-0.244 0.5577,-0.244 h 2.4052 q 0.3137,0 0.5228,0.244 0.2092,0.20915 0.2092,0.52286 l -0.5578,3.55546 h 3.9738 l 0.5577,-3.59032 q 0.07,-0.27885 0.244,-0.488 0.2091,-0.244 0.5577,-0.244 h 2.4052 q 0.3137,0 0.5228,0.244 0.2092,0.20915 0.2092,0.52286 l -0.5577,3.55546 h 2.684 q 0.3834,0 0.5926,0.244 0.244,0.20914 0.244,0.55772 v 2.3703 q 0,0.34857 -0.244,0.59258 -0.2092,0.20914 -0.5926,0.20914 h -3.2766 l -0.6972,4.88004 h 3.0675 q 0.3834,0 0.5926,0.244 0.244,0.20914 0.244,0.55772 v 2.3703 q 0,0.34857 -0.244,0.59257 -0.2092,0.20915 -0.5926,0.20915 h -3.6949 l -0.488,3.59031 q -0.1046,0.73201 -0.8366,0.73201 h -2.4051 q -0.3137,0 -0.5229,-0.20915 -0.2091,-0.244 -0.2091,-0.55772 l 0.5228,-3.55545 h -3.9737 l -0.488,3.59031 q -0.1046,0.73201 -0.8366,0.73201 z m 4.3572,-8.29606 h 3.9389 l 0.732,-4.88004 h -3.9737 z"
     style="font-style:normal;font-variant:normal;font-weight:600;font-stretch:normal;font-size:34.8574px;line-height:1.25;font-family:Rubik;-inkscape-font-specification:'Rubik, Semi-Bold';font-variant-ligatures:normal;font-variant-caps:normal;font-variant-numeric:normal;font-variant-east-asian:normal;opacity:0.85;fill:#6c6ce5;fill-opacity:1;stroke-width:1"
     id="path902" />
  <path
     d="m 1231.6825,831.89264 q -0.3137,0 -0.5577,-0.20915 -0.2091,-0.244 -0.1743,-0.55772 l 0.5229,-3.55545 h -2.7189 q -0.3485,0 -0.5926,-0.20915 -0.2091,-0.244 -0.2091,-0.59257 v -2.3703 q 0,-0.34858 0.2091,-0.55772 0.2441,-0.244 0.5926,-0.244 h 3.3115 l 0.732,-4.88004 h -3.1372 q -0.3486,0 -0.5926,-0.20914 -0.2091,-0.24401 -0.2091,-0.59258 v -2.3703 q 0,-0.34858 0.2091,-0.55772 0.244,-0.244 0.5926,-0.244 h 3.7298 l 0.5577,-3.59032 q 0.07,-0.27885 0.244,-0.488 0.2091,-0.244 0.5577,-0.244 h 2.4052 q 0.3137,0 0.5228,0.244 0.2092,0.20915 0.2092,0.52286 l -0.5578,3.55546 h 3.9738 l 0.5577,-3.59032 q 0.07,-0.27885 0.244,-0.488 0.2092,-0.244 0.5577,-0.244 h 2.4052 q 0.3137,0 0.5228,0.244 0.2092,0.20915 0.2092,0.52286 l -0.5577,3.55546 h 2.684 q 0.3834,0 0.5926,0.244 0.244,0.20914 0.244,0.55772 v 2.3703 q 0,0.34857 -0.244,0.59258 -0.2092,0.20914 -0.5926,0.20914 h -3.2766 l -0.6971,4.88004 h 3.0674 q 0.3834,0 0.5926,0.244 0.244,0.20914 0.244,0.55772 v 2.3703 q 0,0.34857 -0.244,0.59257 -0.2092,0.20915 -0.5926,0.20915 h -3.6949 l -0.488,3.59031 q -0.1046,0.73201 -0.8366,0.73201 h -2.4051 q -0.3137,0 -0.5229,-0.20915 -0.2091,-0.244 -0.2091,-0.55772 l 0.5228,-3.55545 h -3.9737 l -0.488,3.59031 q -0.1046,0.73201 -0.8366,0.73201 z m 4.3572,-8.29606 h 3.9389 l 0.732,-4.88004 h -3.9737 z"
     style="font-style:normal;font-variant:normal;font-weight:600;font-stretch:normal;font-size:34.8574px;line-height:1.25;font-family:Rubik;-inkscape-font-specification:'Rubik, Semi-Bold';font-variant-ligatures:normal;font-variant-caps:normal;font-variant-numeric:normal;font-variant-east-asian:normal;opacity:0.85;fill:#ff4c60;fill-opacity:0.85098;stroke-width:1"
     id="path905" />
  <path
     d="m 108.67963,153.8898 q -0.31371,0 -0.55772,-0.20915 -0.20914,-0.244 -0.17428,-0.55771 l 0.52286,-3.55546 h -2.71888 q -0.34857,0 -0.59257,-0.20914 -0.20915,-0.24401 -0.20915,-0.59258 v -2.3703 q 0,-0.34858 0.20915,-0.55772 0.244,-0.244 0.59257,-0.244 h 3.31145 l 0.73201,-4.88004 h -3.13717 q -0.34857,0 -0.59257,-0.20914 -0.20915,-0.244 -0.20915,-0.59258 v -2.3703 q 0,-0.34858 0.20915,-0.55772 0.244,-0.244 0.59257,-0.244 h 3.72975 l 0.55771,-3.59031 q 0.0697,-0.27886 0.24401,-0.48801 0.20914,-0.244 0.55771,-0.244 h 2.40516 q 0.31372,0 0.52287,0.244 0.20914,0.20915 0.20914,0.52286 l -0.55772,3.55546 h 3.97374 l 0.55772,-3.59031 q 0.0697,-0.27886 0.24401,-0.48801 0.20914,-0.244 0.55771,-0.244 h 2.40516 q 0.31372,0 0.52287,0.244 0.20914,0.20915 0.20914,0.52286 l -0.55772,3.55546 h 2.68402 q 0.38343,0 0.59258,0.244 0.244,0.20914 0.244,0.55772 v 2.3703 q 0,0.34858 -0.244,0.59258 -0.20915,0.20914 -0.59258,0.20914 h -3.27659 l -0.69715,4.88004 h 3.06745 q 0.38343,0 0.59257,0.244 0.24401,0.20914 0.24401,0.55772 v 2.3703 q 0,0.34857 -0.24401,0.59258 -0.20914,0.20914 -0.59257,0.20914 H 120.322 l -0.488,3.59031 q -0.10457,0.73201 -0.83658,0.73201 h -2.40516 q -0.31371,0 -0.52286,-0.20915 -0.20914,-0.244 -0.20914,-0.55771 l 0.52286,-3.55546 h -3.97375 l -0.488,3.59031 q -0.10457,0.73201 -0.83658,0.73201 z m 4.35718,-8.29606 h 3.93888 l 0.73201,-4.88004 h -3.97374 z"
     style="font-style:normal;font-variant:normal;font-weight:600;font-stretch:normal;font-size:34.8574px;line-height:1.25;font-family:Rubik;-inkscape-font-specification:'Rubik, Semi-Bold';font-variant-ligatures:normal;font-variant-caps:normal;font-variant-numeric:normal;font-variant-east-asian:normal;opacity:0.85;fill:#ffd15c;fill-opacity:1;stroke-width:1"
     id="path908" />
  <path
     d="m 468.00885,635.08766 q -4.11318,0 -6.90177,-1.35944 -2.75373,-1.35944 -4.2526,-3.83432 -1.46401,-2.47487 -1.81259,-5.71661 -0.0349,-0.488 -0.0697,-1.28972 0,-0.80172 0,-1.70802 0,-0.90629 0,-1.70801 0.0349,-0.80172 0.0697,-1.25486 0.24401,-2.26574 1.11544,-4.25261 0.90629,-1.98687 2.47488,-3.48574 1.56858,-1.53372 3.79945,-2.40516 2.26573,-0.87143 5.22861,-0.87143 3.48574,0 5.92576,0.80172 2.44002,0.80172 3.97374,2.30059 1.56859,1.46401 2.33545,3.48574 0.80172,2.02172 0.94115,4.42689 0.0697,0.76686 0.0697,1.63829 0,0.83658 -0.0348,1.60344 0,0.73201 -0.0349,1.18515 -0.10457,1.70802 -0.83658,2.89317 -0.69715,1.18515 -1.84744,1.77773 -1.11544,0.59257 -2.50973,0.59257 -1.1503,0 -1.98688,-0.31371 -0.83657,-0.34858 -1.35943,-0.76687 -0.52286,-0.41829 -0.80172,-0.732 -0.24401,0.41829 -0.73201,0.94115 -0.488,0.52286 -1.3943,0.87143 -0.87143,0.34858 -2.3703,0.34858 -2.57945,0 -4.07831,-1.8823 -1.49887,-1.91716 -1.49887,-5.22861 0,-3.31146 1.46401,-5.22861 1.46401,-1.91716 4.04346,-1.91716 1.39429,0 2.19601,0.488 0.80172,0.45315 1.32458,1.11544 v -0.45315 q 0,-0.38343 0.24401,-0.62743 0.244,-0.244 0.59257,-0.244 h 1.60344 q 0.34858,0 0.59258,0.244 0.244,0.244 0.244,0.62743 v 7.14577 q 0,1.22001 0.52286,1.84744 0.55772,0.62744 1.3943,0.62744 0.80172,0 1.22001,-0.41829 0.41828,-0.41829 0.55771,-0.97601 0.17429,-0.59258 0.17429,-1.08058 0,-0.69715 0.0349,-1.74287 0.0349,-1.04572 -0.0697,-2.16116 -0.13943,-2.68402 -1.15029,-4.46174 -1.01087,-1.81259 -3.13717,-2.68402 -2.09144,-0.87144 -5.61204,-0.87144 -2.92802,0 -4.91489,1.01086 -1.95202,0.97601 -3.03259,2.7886 -1.08058,1.77772 -1.35944,4.21774 -0.0697,0.59258 -0.10458,1.67316 0,1.08058 0,2.19601 0.0349,1.08058 0.10458,1.74287 0.41829,3.7646 2.75373,5.85605 2.3703,2.09144 6.90177,2.09144 2.26573,0 3.59031,-0.31372 1.35944,-0.27886 2.1263,-0.76686 0.80172,-0.45315 1.3943,-0.87143 0.27885,-0.20915 0.488,-0.34858 0.20914,-0.13943 0.55772,-0.13943 h 2.19601 q 0.34858,0 0.59258,0.244 0.27886,0.24401 0.244,0.62744 0,0.13943 -0.0697,0.27886 -0.0697,0.10457 -0.13943,0.20914 -0.97601,1.11544 -2.44002,2.05659 -1.42915,0.976 -3.55546,1.56858 -2.09144,0.59258 -4.9846,0.59258 z m -0.45315,-9.96922 q 1.49887,0 2.19602,-1.01086 0.69714,-1.01087 0.69714,-2.96288 0,-1.95202 -0.69714,-2.96288 -0.69715,-1.04572 -2.19602,-1.04572 -1.46401,0 -2.16116,1.04572 -0.69715,1.01086 -0.69715,2.96288 0,1.18515 0.27886,2.09144 0.31372,0.90629 0.94115,1.3943 0.66229,0.488 1.6383,0.488 z"
     style="font-style:normal;font-variant:normal;font-weight:600;font-stretch:normal;font-size:34.8574px;line-height:1.25;font-family:Rubik;-inkscape-font-specification:'Rubik, Semi-Bold';font-variant-ligatures:normal;font-variant-caps:normal;font-variant-numeric:normal;font-variant-east-asian:normal;opacity:0.85;fill:#44d7b6;fill-opacity:1;stroke-width:1"
     id="path911" />
  <path
     d="m 512.31852,96.44373 q -0.31371,0 -0.52286,-0.244001 -0.20914,-0.209145 -0.20914,-0.488004 0,-0.174287 0.0697,-0.348574 l 11.85152,-28.443638 q 0.10457,-0.278859 0.34857,-0.52286 0.27886,-0.27886 0.80172,-0.27886 h 2.68402 q 0.31372,0 0.52286,0.244002 0.20915,0.209145 0.20915,0.488004 0,0.139429 -0.0697,0.348574 L 516.11798,95.64201 q -0.0697,0.244002 -0.34858,0.522861 -0.27885,0.278859 -0.80172,0.278859 z"
     style="font-style:normal;font-variant:normal;font-weight:600;font-stretch:normal;font-size:34.8574px;line-height:1.25;font-family:Rubik;-inkscape-font-specification:'Rubik, Semi-Bold';font-variant-ligatures:normal;font-variant-caps:normal;font-variant-numeric:normal;font-variant-east-asian:normal;opacity:0.85;fill:#6c6ce5;fill-opacity:1;stroke-width:1"
     id="path914" />
  <path
     d="m 1036.5842,732.00627 q 0.3138,0 0.5229,-0.244 0.2092,-0.20915 0.2092,-0.48801 0,-0.17428 -0.07,-0.34857 l -11.8515,-28.44364 q -0.1045,-0.27886 -0.3485,-0.52286 -0.2789,-0.27886 -0.8018,-0.27886 h -2.684 q -0.3137,0 -0.5229,0.244 -0.2091,0.20915 -0.2091,0.48801 0,0.13943 0.07,0.34857 l 11.8864,28.44364 q 0.07,0.244 0.3486,0.52286 0.2788,0.27886 0.8017,0.27886 z"
     style="font-style:normal;font-variant:normal;font-weight:600;font-stretch:normal;font-size:34.8574px;line-height:1.25;font-family:Rubik;-inkscape-font-specification:'Rubik, Semi-Bold';font-variant-ligatures:normal;font-variant-caps:normal;font-variant-numeric:normal;font-variant-east-asian:normal;opacity:0.85;fill:#6c6ce5;fill-opacity:1;stroke-width:1"
     id="path917" />
  <path
     d="m 116.6659,822.1035 q -0.31372,0 -0.52287,-0.244 -0.20914,-0.20915 -0.20914,-0.48801 0,-0.17428 0.0697,-0.34857 l 11.85151,-28.44364 q 0.10457,-0.27886 0.34857,-0.52286 0.27886,-0.27886 0.80173,-0.27886 h 2.68401 q 0.31372,0 0.52287,0.244 0.20914,0.20915 0.20914,0.48801 0,0.13943 -0.0697,0.34857 l -11.88638,28.44364 q -0.0697,0.244 -0.34857,0.52286 -0.27886,0.27886 -0.80172,0.27886 z"
     style="font-style:normal;font-variant:normal;font-weight:600;font-stretch:normal;font-size:34.8574px;line-height:1.25;font-family:Rubik;-inkscape-font-specification:'Rubik, Semi-Bold';font-variant-ligatures:normal;font-variant-caps:normal;font-variant-numeric:normal;font-variant-east-asian:normal;opacity:0.85;fill:#ffd15c;fill-opacity:1;stroke-width:1"
     id="path920" />
  <path
     d="m 346.25456,268.64635 q -2.02173,0 -3.66003,-0.62743 -1.6383,-0.62743 -2.78859,-1.91716 -1.11544,-1.25486 -1.70801,-3.13716 -0.59258,-1.8823 -0.59258,-4.39203 0,-1.53373 -0.488,-2.54459 -0.45315,-1.01087 -1.42915,-1.53373 l -0.41829,-0.17429 q -0.9063,-0.52286 -0.9063,-1.39429 v -1.11544 q 0,-0.87143 0.9063,-1.3943 l 0.41829,-0.17428 q 1.01086,-0.55772 1.46401,-1.53373 0.45314,-1.01086 0.45314,-2.54459 0,-2.50973 0.59258,-4.39203 0.59257,-1.8823 1.70801,-3.13717 1.15029,-1.25486 2.75374,-1.8823 1.63829,-0.62743 3.66002,-0.66229 h 0.20915 q 0.34857,0 0.55771,0.24401 0.20915,0.20914 0.20915,0.52286 v 2.68402 q 0,0.34857 -0.20915,0.55771 -0.20914,0.20915 -0.488,0.20915 h -0.13943 q -1.53372,0.10457 -2.40516,0.76686 -0.87143,0.66229 -1.28972,2.05659 -0.38343,1.35944 -0.38343,3.59031 0,2.16116 -0.69715,3.62517 -0.69715,1.46401 -1.8823,2.02173 0.80172,0.34857 1.35944,1.18515 0.59257,0.80172 0.90629,1.95202 0.31372,1.15029 0.31372,2.50973 0,2.19601 0.38343,3.59031 0.38343,1.3943 1.25486,2.02173 0.9063,0.66229 2.40516,0.80172 h 0.17429 q 0.27886,0.0349 0.488,0.244 0.20915,0.20915 0.20915,0.52286 v 2.68402 q 0,0.34858 -0.20915,0.55772 -0.20914,0.20914 -0.55771,0.20914 z"
     style="font-style:normal;font-variant:normal;font-weight:600;font-stretch:normal;font-size:34.8574px;line-height:1.25;font-family:Rubik;-inkscape-font-specification:'Rubik, Semi-Bold';font-variant-ligatures:normal;font-variant-caps:normal;font-variant-numeric:normal;font-variant-east-asian:normal;opacity:0.85;fill:#ffd15c;fill-opacity:1;stroke-width:1"
     id="path923" />
  <path
     d="m 350.29799,265.75319 q -0.31371,0 -0.488,-0.244 -0.17429,-0.20915 -0.13943,-0.52286 l 0.97601,-6.34405 q 0.0697,-0.45315 0.34857,-0.80172 0.27886,-0.38343 0.83658,-0.38343 h 3.66003 q 0.27885,0 0.45314,0.20914 0.17429,0.20915 0.17429,0.45315 0,0.244 -0.0697,0.45315 l -2.44001,6.23947 q -0.13943,0.34857 -0.41829,0.62743 -0.244,0.31372 -0.80172,0.31372 z m 1.18515,-14.81439 q -0.38343,0 -0.62743,-0.24401 -0.244,-0.244 -0.244,-0.62743 v -3.72974 q 0,-0.38343 0.244,-0.62743 0.244,-0.24401 0.62743,-0.24401 h 3.93889 q 0.34857,0 0.59258,0.24401 0.27886,0.244 0.27886,0.62743 v 3.72974 q 0,0.38343 -0.27886,0.62743 -0.24401,0.24401 -0.59258,0.24401 z"
     style="font-style:normal;font-variant:normal;font-weight:600;font-stretch:normal;font-size:34.8574px;line-height:1.25;font-family:Rubik;-inkscape-font-specification:'Rubik, Semi-Bold';font-variant-ligatures:normal;font-variant-caps:normal;font-variant-numeric:normal;font-variant-east-asian:normal;opacity:0.85;fill:#ffd15c;fill-opacity:1;stroke-width:1"
     id="path925" />
  <path
     d="m 360.0929,236.08954 q 2.05658,0.0349 3.66002,0.66229 1.6383,0.62744 2.75374,1.8823 1.15029,1.25487 1.74287,3.13717 0.59257,1.8823 0.59257,4.39203 0,1.56859 0.45315,2.57945 0.488,0.97601 1.46401,1.53373 l 0.41829,0.17428 q 0.90629,0.48801 0.90629,1.35944 v 1.15029 q 0,0.87144 -0.90629,1.35944 l -0.41829,0.20915 q -1.01086,0.52286 -1.46401,1.53372 -0.45315,1.01087 -0.45315,2.50974 0,2.54459 -0.59257,4.42689 -0.59258,1.84744 -1.74287,3.1023 -1.11544,1.25487 -2.75374,1.8823 -1.60344,0.66229 -3.62517,0.66229 h -0.20914 q -0.34857,0 -0.55772,-0.20914 -0.20914,-0.20914 -0.20914,-0.55772 v -2.68402 q 0,-0.31371 0.20914,-0.52286 0.20915,-0.20914 0.488,-0.244 h 0.13943 q 1.53373,-0.10457 2.40516,-0.76686 0.9063,-0.66229 1.28973,-2.02173 0.38343,-1.3943 0.38343,-3.59031 0,-2.19602 0.69715,-3.62517 0.69715,-1.46402 1.8823,-2.05659 -0.76687,-0.38343 -1.35944,-1.18515 -0.59258,-0.80172 -0.90629,-1.91716 -0.31372,-1.15029 -0.31372,-2.54459 0,-2.23087 -0.38343,-3.59031 -0.38343,-1.35944 -1.25487,-2.02173 -0.87143,-0.69715 -2.40516,-0.76686 l -0.17429,-0.0349 q -0.27885,0 -0.488,-0.20915 -0.20914,-0.20914 -0.20914,-0.55771 v -2.68402 q 0,-0.31372 0.20914,-0.52286 0.20915,-0.24401 0.55772,-0.24401 z"
     style="font-style:normal;font-variant:normal;font-weight:600;font-stretch:normal;font-size:34.8574px;line-height:1.25;font-family:Rubik;-inkscape-font-specification:'Rubik, Semi-Bold';font-variant-ligatures:normal;font-variant-caps:normal;font-variant-numeric:normal;font-variant-east-asian:normal;opacity:0.85;fill:#ffd15c;fill-opacity:1;stroke-width:1"
     id="path927" />
  <path
     d="m 1225.0567,312.79011 q -0.3137,0 -0.5228,-0.244 -0.2092,-0.20914 -0.2092,-0.488 0,-0.17429 0.07,-0.34858 l 11.8515,-28.44363 q 0.1045,-0.27886 0.3485,-0.52287 0.2789,-0.27885 0.8018,-0.27885 h 2.684 q 0.3137,0 0.5228,0.244 0.2092,0.20914 0.2092,0.488 0,0.13943 -0.07,0.34857 l -11.8864,28.44364 q -0.07,0.244 -0.3486,0.52286 -0.2788,0.27886 -0.8017,0.27886 z"
     style="font-style:normal;font-variant:normal;font-weight:600;font-stretch:normal;font-size:34.8574px;line-height:1.25;font-family:Rubik;-inkscape-font-specification:'Rubik, Semi-Bold';font-variant-ligatures:normal;font-variant-caps:normal;font-variant-numeric:normal;font-variant-east-asian:normal;opacity:0.85;fill:#44d7b6;fill-opacity:1;stroke-width:1"
     id="path930" />
  <path
     d="m 883.51089,358.26108 q -0.13943,0 -0.31372,-0.0697 -0.17429,-0.10457 -0.34857,-0.17428 l -12.16524,-8.29606 q -0.488,-0.34858 -0.76686,-0.69715 -0.244,-0.34858 -0.244,-0.83658 v -0.97601 q 0,-0.52286 0.244,-0.83657 0.27886,-0.34858 0.76686,-0.69715 l 12.16524,-8.29606 q 0.17428,-0.0697 0.34857,-0.13943 0.17429,-0.10457 0.31372,-0.10457 0.31371,0 0.52286,0.20914 0.20914,0.17429 0.20914,0.488 v 3.20688 q 0,0.52287 -0.31372,0.80172 -0.27885,0.27886 -0.62743,0.52287 l -8.0172,5.33318 8.0172,5.36804 q 0.34858,0.20914 0.62743,0.488 0.31372,0.27886 0.31372,0.80172 v 3.20688 q 0,0.31372 -0.20914,0.52286 -0.20915,0.17429 -0.52286,0.17429 z"
     style="font-style:normal;font-variant:normal;font-weight:600;font-stretch:normal;font-size:34.8574px;line-height:1.25;font-family:Rubik;-inkscape-font-specification:'Rubik, Semi-Bold';font-variant-ligatures:normal;font-variant-caps:normal;font-variant-numeric:normal;font-variant-east-asian:normal;opacity:0.85;fill:#6c6ce5;fill-opacity:1;stroke-width:1"
     id="path933" />
  <path
     d="m 887.93772,362.86226 q -0.31372,0 -0.52287,-0.24401 -0.20914,-0.20914 -0.20914,-0.488 0,-0.17429 0.0697,-0.34857 l 11.85151,-28.44364 q 0.10457,-0.27886 0.34858,-0.52286 0.27885,-0.27886 0.80172,-0.27886 h 2.68401 q 0.31372,0 0.52287,0.244 0.20914,0.20915 0.20914,0.488 0,0.13943 -0.0697,0.34858 l -11.88638,28.44364 q -0.0697,0.244 -0.34857,0.52286 -0.27886,0.27886 -0.80172,0.27886 z"
     style="font-style:normal;font-variant:normal;font-weight:600;font-stretch:normal;font-size:34.8574px;line-height:1.25;font-family:Rubik;-inkscape-font-specification:'Rubik, Semi-Bold';font-variant-ligatures:normal;font-variant-caps:normal;font-variant-numeric:normal;font-variant-east-asian:normal;opacity:0.85;fill:#6c6ce5;fill-opacity:1;stroke-width:1"
     id="path935" />
  <path
     d="m 907.38814,358.26108 q -0.27886,0 -0.488,-0.17429 -0.20915,-0.20914 -0.20915,-0.52286 v -3.20688 q 0,-0.52286 0.27886,-0.80172 0.27886,-0.27886 0.62744,-0.488 l 8.05206,-5.36804 -8.05206,-5.33318 q -0.34858,-0.24401 -0.62744,-0.52287 -0.27886,-0.27885 -0.27886,-0.80172 v -3.20688 q 0,-0.31371 0.20915,-0.488 0.20914,-0.20914 0.488,-0.20914 0.17429,0 0.34858,0.10457 0.17428,0.0697 0.31371,0.13943 l 12.16523,8.29606 q 0.52287,0.34857 0.76687,0.69715 0.244,0.31371 0.244,0.83657 v 0.97601 q 0,0.488 -0.244,0.83658 -0.244,0.34857 -0.76687,0.69715 l -12.16523,8.29606 q -0.13943,0.0697 -0.31371,0.17428 -0.17429,0.0697 -0.34858,0.0697 z"
     style="font-style:normal;font-variant:normal;font-weight:600;font-stretch:normal;font-size:34.8574px;line-height:1.25;font-family:Rubik;-inkscape-font-specification:'Rubik, Semi-Bold';font-variant-ligatures:normal;font-variant-caps:normal;font-variant-numeric:normal;font-variant-east-asian:normal;opacity:0.85;fill:#6c6ce5;fill-opacity:1;stroke-width:1"
     id="path937" />
  <path
     d="m 486.7548,454.02859 q -2.02173,0 -3.66002,-0.62744 -1.6383,-0.62743 -2.7886,-1.91715 -1.11543,-1.25487 -1.70801,-3.13717 -0.59257,-1.8823 -0.59257,-4.39203 0,-1.53373 -0.48801,-2.54459 -0.45314,-1.01087 -1.42915,-1.53373 l -0.41829,-0.17428 q -0.90629,-0.52286 -0.90629,-1.3943 v -1.11544 q 0,-0.87143 0.90629,-1.39429 l 0.41829,-0.17429 q 1.01086,-0.55772 1.46401,-1.53373 0.45315,-1.01086 0.45315,-2.54459 0,-2.50973 0.59257,-4.39203 0.59258,-1.8823 1.70801,-3.13716 1.1503,-1.25487 2.75374,-1.8823 1.6383,-0.62744 3.66003,-0.66229 h 0.20914 q 0.34857,0 0.55772,0.244 0.20914,0.20914 0.20914,0.52286 v 2.68402 q 0,0.34857 -0.20914,0.55772 -0.20915,0.20914 -0.488,0.20914 h -0.13943 q -1.53373,0.10457 -2.40516,0.76686 -0.87144,0.6623 -1.28973,2.05659 -0.38343,1.35944 -0.38343,3.59031 0,2.16116 -0.69715,3.62517 -0.69715,1.46401 -1.8823,2.02173 0.80172,0.34858 1.35944,1.18515 0.59258,0.80172 0.90629,1.95202 0.31372,1.15029 0.31372,2.50973 0,2.19602 0.38343,3.59031 0.38343,1.3943 1.25487,2.02173 0.90629,0.66229 2.40516,0.80172 h 0.17429 q 0.27885,0.0349 0.488,0.244 0.20914,0.20915 0.20914,0.52286 v 2.68402 q 0,0.34858 -0.20914,0.55772 -0.20915,0.20915 -0.55772,0.20915 z"
     style="font-style:normal;font-variant:normal;font-weight:600;font-stretch:normal;font-size:34.8574px;line-height:1.25;font-family:Rubik;-inkscape-font-specification:'Rubik, Semi-Bold';font-variant-ligatures:normal;font-variant-caps:normal;font-variant-numeric:normal;font-variant-east-asian:normal;opacity:0.85;fill:#6c6ce5;fill-opacity:1;stroke-width:1"
     id="path940" />
  <path
     d="m 490.79824,451.13542 q -0.31372,0 -0.48801,-0.244 -0.17428,-0.20914 -0.13943,-0.52286 l 0.97601,-6.34405 q 0.0697,-0.45314 0.34858,-0.80172 0.27885,-0.38343 0.83657,-0.38343 h 3.66003 q 0.27886,0 0.45315,0.20915 0.17428,0.20914 0.17428,0.45314 0,0.244 -0.0697,0.45315 l -2.44002,6.23947 q -0.13943,0.34858 -0.41829,0.62744 -0.244,0.31371 -0.80172,0.31371 z m 1.18515,-14.81439 q -0.38343,0 -0.62743,-0.244 -0.24401,-0.24401 -0.24401,-0.62744 v -3.72974 q 0,-0.38343 0.24401,-0.62743 0.244,-0.244 0.62743,-0.244 h 3.93888 q 0.34858,0 0.59258,0.244 0.27886,0.244 0.27886,0.62743 v 3.72974 q 0,0.38343 -0.27886,0.62744 -0.244,0.244 -0.59258,0.244 z"
     style="font-style:normal;font-variant:normal;font-weight:600;font-stretch:normal;font-size:34.8574px;line-height:1.25;font-family:Rubik;-inkscape-font-specification:'Rubik, Semi-Bold';font-variant-ligatures:normal;font-variant-caps:normal;font-variant-numeric:normal;font-variant-east-asian:normal;opacity:0.85;fill:#6c6ce5;fill-opacity:1;stroke-width:1"
     id="path942" />
  <path
     d="m 500.59314,421.47178 q 2.05659,0.0348 3.66003,0.66229 1.6383,0.62743 2.75373,1.8823 1.1503,1.25486 1.74287,3.13716 0.59258,1.8823 0.59258,4.39203 0,1.56859 0.45314,2.57945 0.48801,0.97601 1.46401,1.53373 l 0.41829,0.17428 q 0.9063,0.48801 0.9063,1.35944 v 1.1503 q 0,0.87143 -0.9063,1.35944 l -0.41829,0.20914 q -1.01086,0.52286 -1.46401,1.53373 -0.45314,1.01086 -0.45314,2.50973 0,2.54459 -0.59258,4.42689 -0.59257,1.84744 -1.74287,3.10231 -1.11543,1.25486 -2.75373,1.8823 -1.60344,0.66229 -3.62517,0.66229 h -0.20915 q -0.34857,0 -0.55771,-0.20915 -0.20915,-0.20914 -0.20915,-0.55772 v -2.68402 q 0,-0.31371 0.20915,-0.52286 0.20914,-0.20914 0.488,-0.244 h 0.13943 q 1.53372,-0.10457 2.40516,-0.76686 0.90629,-0.66229 1.28972,-2.02173 0.38343,-1.3943 0.38343,-3.59031 0,-2.19602 0.69715,-3.62517 0.69715,-1.46401 1.8823,-2.05659 -0.76686,-0.38343 -1.35944,-1.18515 -0.59257,-0.80172 -0.90629,-1.91716 -0.31372,-1.15029 -0.31372,-2.54459 0,-2.23087 -0.38343,-3.59031 -0.38343,-1.35944 -1.25486,-2.02173 -0.87144,-0.69715 -2.40516,-0.76686 l -0.17429,-0.0349 q -0.27886,0 -0.488,-0.20914 -0.20915,-0.20915 -0.20915,-0.55772 v -2.68402 q 0,-0.31372 0.20915,-0.52286 0.20914,-0.244 0.55771,-0.244 z"
     style="font-style:normal;font-variant:normal;font-weight:600;font-stretch:normal;font-size:34.8574px;line-height:1.25;font-family:Rubik;-inkscape-font-specification:'Rubik, Semi-Bold';font-variant-ligatures:normal;font-variant-caps:normal;font-variant-numeric:normal;font-variant-east-asian:normal;opacity:0.85;fill:#6c6ce5;fill-opacity:1;stroke-width:1"
     id="path944" />
  <path
     d="m 602.02301,232.71202 q -4.11318,0 -6.90177,-1.35944 -2.75373,-1.35944 -4.2526,-3.83432 -1.46401,-2.47487 -1.81259,-5.71661 -0.0349,-0.488 -0.0697,-1.28972 0,-0.80172 0,-1.70802 0,-0.90629 0,-1.70801 0.0349,-0.80172 0.0697,-1.25487 0.24401,-2.26573 1.11544,-4.2526 0.90629,-1.98687 2.47488,-3.48574 1.56858,-1.53372 3.79945,-2.40516 2.26573,-0.87143 5.22861,-0.87143 3.48574,0 5.92576,0.80172 2.44002,0.80172 3.97374,2.30058 1.56859,1.46402 2.33545,3.48574 0.80172,2.02173 0.94115,4.42689 0.0697,0.76687 0.0697,1.6383 0,0.83658 -0.0349,1.60344 0,0.73201 -0.0349,1.18515 -0.10457,1.70802 -0.83658,2.89317 -0.69715,1.18515 -1.84744,1.77773 -1.11544,0.59257 -2.50973,0.59257 -1.1503,0 -1.98687,-0.31372 -0.83658,-0.34857 -1.35944,-0.76686 -0.52286,-0.41829 -0.80172,-0.732 -0.24401,0.41829 -0.73201,0.94115 -0.488,0.52286 -1.3943,0.87143 -0.87143,0.34858 -2.3703,0.34858 -2.57945,0 -4.07831,-1.8823 -1.49887,-1.91716 -1.49887,-5.22861 0,-3.31146 1.46401,-5.22861 1.46401,-1.91716 4.04346,-1.91716 1.39429,0 2.19601,0.488 0.80172,0.45315 1.32458,1.11544 v -0.45315 q 0,-0.38343 0.24401,-0.62743 0.244,-0.244 0.59257,-0.244 h 1.60344 q 0.34858,0 0.59258,0.244 0.244,0.244 0.244,0.62743 v 7.14577 q 0,1.22001 0.52286,1.84744 0.55772,0.62744 1.3943,0.62744 0.80172,0 1.22001,-0.41829 0.41828,-0.41829 0.55771,-0.97601 0.17429,-0.59258 0.17429,-1.08058 0,-0.69715 0.0349,-1.74287 0.0349,-1.04572 -0.0697,-2.16116 -0.13943,-2.68402 -1.15029,-4.46175 -1.01087,-1.81258 -3.13717,-2.68402 -2.09144,-0.87143 -5.61204,-0.87143 -2.92802,0 -4.91489,1.01086 -1.95202,0.97601 -3.03259,2.7886 -1.08058,1.77772 -1.35944,4.21774 -0.0697,0.59258 -0.10458,1.67316 0,1.08058 0,2.19601 0.0349,1.08058 0.10458,1.74287 0.41829,3.7646 2.75373,5.85605 2.3703,2.09144 6.90177,2.09144 2.26573,0 3.59031,-0.31372 1.35944,-0.27886 2.1263,-0.76686 0.80172,-0.45315 1.3943,-0.87143 0.27885,-0.20915 0.488,-0.34858 0.20914,-0.13943 0.55772,-0.13943 h 2.19601 q 0.34858,0 0.59258,0.244 0.27886,0.24401 0.244,0.62744 0,0.13943 -0.0697,0.27886 -0.0697,0.10457 -0.13943,0.20914 -0.97601,1.11544 -2.44002,2.05659 -1.42915,0.976 -3.55546,1.56858 -2.09144,0.59258 -4.9846,0.59258 z m -0.45315,-9.96922 q 1.49887,0 2.19602,-1.01087 0.69714,-1.01086 0.69714,-2.96287 0,-1.95202 -0.69714,-2.96288 -0.69715,-1.04573 -2.19602,-1.04573 -1.46401,0 -2.16116,1.04573 -0.69715,1.01086 -0.69715,2.96288 0,1.18515 0.27886,2.09144 0.31372,0.90629 0.94115,1.3943 0.66229,0.488 1.6383,0.488 z"
     style="font-style:normal;font-variant:normal;font-weight:600;font-stretch:normal;font-size:34.8574px;line-height:1.25;font-family:Rubik;-inkscape-font-specification:'Rubik, Semi-Bold';font-variant-ligatures:normal;font-variant-caps:normal;font-variant-numeric:normal;font-variant-east-asian:normal;opacity:0.85;fill:#ff4c60;fill-opacity:1;stroke-width:1"
     id="path947" />
  <path
     d="m 802.86236,717.24658 q -0.31372,0 -0.55772,-0.20914 -0.20915,-0.24401 -0.17429,-0.55772 l 0.52286,-3.55546 h -2.71887 q -0.34858,0 -0.59258,-0.20914 -0.20914,-0.244 -0.20914,-0.59258 v -2.3703 q 0,-0.34858 0.20914,-0.55772 0.244,-0.244 0.59258,-0.244 h 3.31145 l 0.732,-4.88004 h -3.13716 q -0.34858,0 -0.59258,-0.20914 -0.20914,-0.244 -0.20914,-0.59258 v -2.3703 q 0,-0.34857 0.20914,-0.55772 0.244,-0.244 0.59258,-0.244 h 3.72974 l 0.55772,-3.59031 q 0.0697,-0.27886 0.244,-0.48801 0.20914,-0.244 0.55772,-0.244 h 2.40516 q 0.31372,0 0.52286,0.244 0.20914,0.20915 0.20914,0.52286 l -0.55771,3.55546 h 3.97374 l 0.55772,-3.59031 q 0.0697,-0.27886 0.244,-0.48801 0.20914,-0.244 0.55772,-0.244 h 2.40516 q 0.31371,0 0.52286,0.244 0.20914,0.20915 0.20914,0.52286 l -0.55771,3.55546 h 2.68401 q 0.38344,0 0.59258,0.244 0.244,0.20915 0.244,0.55772 v 2.3703 q 0,0.34858 -0.244,0.59258 -0.20914,0.20914 -0.59258,0.20914 h -3.27659 l -0.69715,4.88004 h 3.06745 q 0.38343,0 0.59258,0.244 0.244,0.20914 0.244,0.55772 v 2.3703 q 0,0.34858 -0.244,0.59258 -0.20915,0.20914 -0.59258,0.20914 h -3.69488 l -0.48801,3.59031 q -0.10457,0.73201 -0.83657,0.73201 h -2.40516 q -0.31372,0 -0.52286,-0.20914 -0.20915,-0.24401 -0.20915,-0.55772 l 0.52286,-3.55546 h -3.97374 l -0.48801,3.59031 q -0.10457,0.73201 -0.83657,0.73201 z m 4.35717,-8.29606 h 3.93889 l 0.732,-4.88004 h -3.97374 z"
     style="font-style:normal;font-variant:normal;font-weight:600;font-stretch:normal;font-size:34.8574px;line-height:1.25;font-family:Rubik;-inkscape-font-specification:'Rubik, Semi-Bold';font-variant-ligatures:normal;font-variant-caps:normal;font-variant-numeric:normal;font-variant-east-asian:normal;opacity:0.85;fill:#ffd15c;fill-opacity:0.85098;stroke-width:1"
     id="path950" />
  <path
     d="m 276.03606,702.47613 q -0.31371,0 -0.55772,-0.20914 -0.20914,-0.244 -0.17428,-0.55772 l 0.52286,-3.55545 h -2.71888 q -0.34857,0 -0.59257,-0.20915 -0.20915,-0.244 -0.20915,-0.59257 v -2.37031 q 0,-0.34857 0.20915,-0.55772 0.244,-0.244 0.59257,-0.244 h 3.31145 l 0.73201,-4.88003 h -3.13717 q -0.34857,0 -0.59257,-0.20915 -0.20915,-0.244 -0.20915,-0.59257 v -2.37031 q 0,-0.34857 0.20915,-0.55772 0.244,-0.244 0.59257,-0.244 h 3.72975 l 0.55771,-3.59031 q 0.0697,-0.27886 0.24401,-0.488 0.20914,-0.24401 0.55771,-0.24401 h 2.40516 q 0.31372,0 0.52287,0.24401 0.20914,0.20914 0.20914,0.52286 l -0.55772,3.55545 h 3.97375 l 0.55771,-3.59031 q 0.0697,-0.27886 0.24401,-0.488 0.20914,-0.24401 0.55771,-0.24401 h 2.40516 q 0.31372,0 0.52287,0.24401 0.20914,0.20914 0.20914,0.52286 l -0.55772,3.55545 h 2.68402 q 0.38343,0 0.59258,0.244 0.244,0.20915 0.244,0.55772 v 2.37031 q 0,0.34857 -0.244,0.59257 -0.20915,0.20915 -0.59258,0.20915 h -3.27659 l -0.69715,4.88003 h 3.06745 q 0.38343,0 0.59257,0.244 0.24401,0.20915 0.24401,0.55772 v 2.37031 q 0,0.34857 -0.24401,0.59257 -0.20914,0.20915 -0.59257,0.20915 h -3.69489 l -0.488,3.59031 q -0.10457,0.732 -0.83658,0.732 h -2.40516 q -0.31371,0 -0.52286,-0.20914 -0.20914,-0.244 -0.20914,-0.55772 l 0.52286,-3.55545 h -3.97375 l -0.488,3.59031 q -0.10457,0.732 -0.83658,0.732 z m 4.35718,-8.29606 h 3.93888 l 0.73201,-4.88003 h -3.97374 z"
     style="font-style:normal;font-variant:normal;font-weight:600;font-stretch:normal;font-size:34.8574px;line-height:1.25;font-family:Rubik;-inkscape-font-specification:'Rubik, Semi-Bold';font-variant-ligatures:normal;font-variant-caps:normal;font-variant-numeric:normal;font-variant-east-asian:normal;opacity:0.85;fill:#6c6ce5;fill-opacity:1;stroke-width:1"
     id="path953" />
  <path
     d="m 135.04102,349.53337 q 0.31372,0 0.52286,-0.244 0.20915,-0.20915 0.20915,-0.48801 0,-0.17428 -0.0697,-0.34857 l -11.85151,-28.44364 q -0.10458,-0.27886 -0.34858,-0.52286 -0.27886,-0.27886 -0.80172,-0.27886 h -2.68402 q -0.31371,0 -0.52286,0.244 -0.20914,0.20915 -0.20914,0.48801 0,0.13943 0.0697,0.34857 l 11.88637,28.44364 q 0.0697,0.244 0.34858,0.52286 0.27886,0.27886 0.80172,0.27886 z"
     style="font-style:normal;font-variant:normal;font-weight:600;font-stretch:normal;font-size:34.8574px;line-height:1.25;font-family:Rubik;-inkscape-font-specification:'Rubik, Semi-Bold';font-variant-ligatures:normal;font-variant-caps:normal;font-variant-numeric:normal;font-variant-east-asian:normal;opacity:0.85;fill:#ff4c60;fill-opacity:1;stroke-width:1"
     id="path956" />
</svg>
