<?xml version="1.0" encoding="UTF-8" standalone="no"?>
<svg
   xmlns:dc="http://purl.org/dc/elements/1.1/"
   xmlns:cc="http://creativecommons.org/ns#"
   xmlns:rdf="http://www.w3.org/1999/02/22-rdf-syntax-ns#"
   xmlns:svg="http://www.w3.org/2000/svg"
   xmlns="http://www.w3.org/2000/svg"
   xmlns:sodipodi="http://sodipodi.sourceforge.net/DTD/sodipodi-0.dtd"
   xmlns:inkscape="http://www.inkscape.org/namespaces/inkscape"
   height="512pt"
   viewBox="-1 0 512 512.001"
   width="512pt"
   version="1.1"
   id="svg68"
   sodipodi:docname="js.svg"
   inkscape:version="1.0.2-2 (e86c870879, 2021-01-15)">
  <metadata
     id="metadata74">
    <rdf:RDF>
      <cc:Work
         rdf:about="">
        <dc:format>image/svg+xml</dc:format>
        <dc:type
           rdf:resource="http://purl.org/dc/dcmitype/StillImage" />
      </cc:Work>
    </rdf:RDF>
  </metadata>
  <defs
     id="defs72" />
  <sodipodi:namedview
     pagecolor="#ffffff"
     bordercolor="#666666"
     borderopacity="1"
     objecttolerance="10"
     gridtolerance="10"
     guidetolerance="10"
     inkscape:pageopacity="0"
     inkscape:pageshadow="2"
     inkscape:window-width="1366"
     inkscape:window-height="705"
     id="namedview70"
     showgrid="false"
     inkscape:zoom="0.50016362"
     inkscape:cx="444.06897"
     inkscape:cy="305.45538"
     inkscape:window-x="-8"
     inkscape:window-y="-8"
     inkscape:window-maximized="1"
     inkscape:current-layer="svg68" />
  <path
     d="m480.335938 462.898438h-450.410157v-307.253907c0-12.769531 10.351563-23.125 23.121094-23.125h404.164063c12.773437 0 23.125 10.355469 23.125 23.125zm0 0"
     fill="#e7e7e7"
     id="path2" />
  <path
     d="m480.339844 155.648438v307.25h-27.847656v-307.25c0-12.777344-10.347657-23.125-23.125-23.125h27.84375c12.765624 0 23.128906 10.347656 23.128906 23.125zm0 0"
     fill="#cecece"
     id="path4" />
  <path
     d="m439.789062 462.898438h-369.316406v-285.355469c0-4.703125 3.8125-8.515625 8.519532-8.515625h352.277343c4.703125 0 8.515625 3.8125 8.515625 8.515625v285.355469zm0 0"
     fill="#c9f0ff"
     id="path6" />
  <path
     d="m439.789062 177.546875v285.351563h-27.023437v-285.351563c0-4.703125-3.808594-8.523437-8.519531-8.523437h27.019531c4.710937 0 8.523437 3.820312 8.523437 8.523437zm0 0"
     fill="#9ae7fd"
     id="path8" />
  <path
     d="m485.058594 511.996094h-459.859375c-13.917969 0-25.199219-11.28125-25.199219-25.199219v-38c0-4.539063 3.679688-8.222656 8.21875-8.222656h493.820312c4.542969 0 8.222657 3.683593 8.222657 8.222656v38c-.003907 13.917969-11.285157 25.199219-25.203125 25.199219zm0 0"
     fill="#838383"
     id="path10" />
  <path
     d="m502.042969 440.578125c4.539062 0 8.21875 3.679687 8.21875 8.21875v38.003906c0 13.910157-11.277344 25.199219-25.203125 25.199219h-23.03125c13.914062 0 25.191406-11.289062 25.191406-25.199219v-46.222656zm0 0"
     fill="#5a5a5a"
     id="path12" />
  <path
     d="m271.65625 440.574219h-102.253906l12.074218 27.632812c.820313 1.882813 2.679688 3.097657 4.730469 3.097657h137.84375c2.054688 0 3.910157-1.214844 4.734375-3.097657l12.074219-27.632812zm0 0"
     fill="#acacac"
     id="path14" />
  <path
     d="m340.859375 440.578125-12.074219 27.628906c-.828125 1.878907-2.675781 3.097657-4.730468 3.097657h-16.660157c.164063-.257813.320313-.527344.441407-.816407l13.066406-29.910156zm0 0"
     fill="#9c9c9c"
     id="path16" />
  <g
     fill="#5a5a5a"
     id="g30">
    <path
       d="m216.265625 371.128906h-105.09375c-4.140625 0-7.5-3.359375-7.5-7.5 0-4.144531 3.359375-7.5 7.5-7.5h105.09375c4.144531 0 7.5 3.355469 7.5 7.5 0 4.140625-3.355469 7.5-7.5 7.5zm0 0"
       id="path18" />
    <path
       d="m288.289062 371.128906h-43.613281c-4.140625 0-7.5-3.359375-7.5-7.5 0-4.144531 3.359375-7.5 7.5-7.5h43.613281c4.140626 0 7.5 3.355469 7.5 7.5 0 4.140625-3.359374 7.5-7.5 7.5zm0 0"
       id="path20" />
    <path
       d="m399.085938 371.128906h-82.109376c-4.140624 0-7.5-3.359375-7.5-7.5 0-4.144531 3.359376-7.5 7.5-7.5h82.109376c4.140624 0 7.5 3.355469 7.5 7.5 0 4.140625-3.359376 7.5-7.5 7.5zm0 0"
       id="path22" />
    <path
       d="m163.949219 402.867188h-52.773438c-4.144531 0-7.5-3.355469-7.5-7.5 0-4.144532 3.355469-7.5 7.5-7.5h52.773438c4.140625 0 7.5 3.355468 7.5 7.5 0 4.144531-3.359375 7.5-7.5 7.5zm0 0"
       id="path24" />
    <path
       d="m316.976562 402.867188h-116.140624c-4.140626 0-7.5-3.355469-7.5-7.5 0-4.144532 3.359374-7.5 7.5-7.5h116.140624c4.144532 0 7.5 3.355468 7.5 7.5 0 4.144531-3.355468 7.5-7.5 7.5zm0 0"
       id="path26" />
    <path
       d="m399.085938 402.867188h-58.226563c-4.144531 0-7.5-3.355469-7.5-7.5 0-4.144532 3.355469-7.5 7.5-7.5h58.226563c4.140624 0 7.5 3.355468 7.5 7.5 0 4.144531-3.359376 7.5-7.5 7.5zm0 0"
       id="path28" />
  </g>
  <path
     d="m373.976562 329.984375h-237.695312c-14.652344 0-26.527344-11.878906-26.527344-26.527344v-276.929687c0-14.648438 11.875-26.527344 26.527344-26.527344h237.695312c14.652344 0 26.527344 11.878906 26.527344 26.527344v276.925781c.003906 14.652344-11.875 26.53125-26.527344 26.53125zm0 0"
     fill="#ffd86e"
     id="path32" />
  <path
     d="m400.507812 26.527344v276.925781c0 14.65625-11.878906 26.535156-26.523437 26.535156h-27.371094c14.644531 0 26.523438-11.878906 26.523438-26.535156v-276.925781c0-14.644532-11.878907-26.52343775-26.523438-26.52343775h27.371094c14.644531 0 26.523437 11.87890575 26.523437 26.52343775zm0 0"
     fill="#ffb509"
     id="path34" />
  <path
     d="m400.507812 72.316406h-290.753906v-45.789062c0-14.648438 11.875-26.527344 26.527344-26.527344h237.695312c14.652344 0 26.527344 11.878906 26.527344 26.527344v45.789062zm0 0"
     fill="#0396fd"
     id="path36" />
  <path
     d="m400.507812 26.527344v45.789062h-27.371093v-45.789062c0-14.644532-11.878907-26.52343775-26.523438-26.52343775h27.371094c14.644531 0 26.523437 11.87890575 26.523437 26.52343775zm0 0"
     fill="#0077f0"
     id="path38" />
  <path
     d="m193.128906 168.484375c0 17.863281 13.40625 24.777344 22.417969 25.066406.082031 0 .164063.003907.246094.003907 4.03125 0 7.359375-3.203126 7.492187-7.261719.132813-4.140625-3.117187-7.605469-7.257812-7.734375-.019532-.003906-2.082032-.195313-3.980469-1.328125-1.683594-1-3.917969-2.996094-3.917969-8.746094v-10.585937c0-2.5-1.246094-4.832032-3.316406-6.222657l-4.703125-3.160156 4.703125-3.160156c2.074219-1.390625 3.316406-3.726563 3.316406-6.222657v-10.585937c0-3.597656 1.324219-7.09375 4.566406-8.933594 1.214844-.6875 2.503907-1.007812 3.832032-1.140625 3.808594-.382812 6.761718-3.480468 6.761718-7.308594v-.355468c0-4.046875-3.28125-7.328125-7.328124-7.328125h-.410157c-9.015625.289062-22.421875 7.203125-22.421875 25.066406v6.585937l-7.15625 4.8125c-3.5 2.347657-5.277344 6.617188-4.308594 10.902344.589844 2.625 2.277344 4.875 4.511719 6.378906l6.953125 4.671876zm0 0"
     fill="#5a5a5a"
     id="path40" />
  <path
     d="m295.472656 118.46875c1.328125.132812 2.621094.457031 3.832032 1.144531 3.246093 1.839844 4.566406 5.335938 4.566406 8.929688v10.585937c0 2.5 1.246094 4.835938 3.320312 6.226563l4.699219 3.160156-4.699219 3.15625c-2.074218 1.394531-3.316406 3.726563-3.316406 6.226563v10.585937c0 5.75-2.238281 7.746094-3.917969 8.746094-1.902343 1.132812-3.964843 1.324219-3.984375 1.324219-4.136718.132812-7.386718 3.597656-7.253906 7.738281.128906 4.058593 3.460938 7.257812 7.492188 7.257812.082031 0 .160156 0 .242187-.003906 9.011719-.285156 22.421875-7.199219 22.421875-25.0625v-6.589844l6.953125-4.671875c2.234375-1.5 3.917969-3.75 4.511719-6.375.964844-4.285156-.808594-8.558594-4.308594-10.90625l-7.160156-4.808594v-6.589843c0-17.863281-13.40625-24.777344-22.417969-25.0625h-.410156c-4.046875 0-7.328125 3.28125-7.328125 7.328125v.351562c-.003906 3.832032 2.949218 6.929688 6.757812 7.308594zm0 0"
     fill="#5a5a5a"
     id="path42" />
  <path
     d="m222.980469 166.976562c.585937 1.390626 1.496093 2.539063 2.761719 3.371094.753906.496094 1.808593.941406 2.699218 1.109375.480469.101563.980469.148438 1.46875.148438 1.03125 0 1.925782-.171875 2.871094-.570313.890625-.375 1.738281-.960937 2.429688-1.628906 1.046874-1.015625 1.757812-2.40625 2.050781-3.832031.507812-2.484375-.25-4.957031-2.050781-6.769531-1.738282-1.746094-4.363282-2.476563-6.765626-2.03125-.480468.085937-.953124.222656-1.40625.402343-.917968.371094-1.738281.929688-2.4375 1.632813-1.390624 1.386718-2.191406 3.316406-2.191406 5.296875 0 .941406.207032 2.007812.570313 2.871093zm0 0"
     fill="#5a5a5a"
     id="path44" />
  <path
     d="m250.691406 169.40625c.671875.671875 1.5625 1.261719 2.4375 1.628906.453125.183594.921875.332032 1.402344.421875 1.40625.261719 2.992188.105469 4.339844-.421875.921875-.359375 1.722656-.945312 2.429687-1.628906.703125-.683594 1.253907-1.519531 1.621094-2.429688.367187-.917968.578125-1.882812.578125-2.871093 0-1.96875-.800781-3.910157-2.199219-5.300781-1.398437-1.398438-3.332031-2.199219-5.300781-2.199219-1.980469 0-3.910156.800781-5.308594 2.199219-1.390625 1.390624-2.191406 3.320312-2.191406 5.300781 0 .492187.050781.980469.140625 1.46875.300781 1.421875 1.019531 2.800781 2.050781 3.832031zm0 0"
     fill="#5a5a5a"
     id="path46" />
  <path
     d="m277.921875 170.347656c.410156.269532.847656.5 1.296875.6875.453125.183594.921875.332032 1.402344.421875.496094.09375.960937.148438 1.46875.148438 1.039062 0 1.902344-.175781 2.859375-.570313.980469-.402344 1.691406-.898437 2.441406-1.628906 1.417969-1.378906 2.199219-3.34375 2.199219-5.300781 0-1.96875-.800782-3.910157-2.199219-5.300781-1.398437-1.398438-3.332031-2.199219-5.300781-2.199219-1.980469 0-3.910156.800781-5.308594 2.199219-1.390625 1.390624-2.191406 3.320312-2.191406 5.300781 0 2.511719 1.214844 4.851562 3.332031 6.242187zm0 0"
     fill="#5a5a5a"
     id="path48" />
  <path
     d="m164.835938 221.820312h-21.617188c-4.144531 0-7.5-3.359374-7.5-7.5 0-4.144531 3.355469-7.5 7.5-7.5h21.617188c4.140624 0 7.5 3.355469 7.5 7.5 0 4.140626-3.359376 7.5-7.5 7.5zm0 0"
     fill="#ff5770"
     id="path50" />
  <path
     d="m367.042969 221.820312h-169.613281c-4.140626 0-7.5-3.359374-7.5-7.5 0-4.144531 3.359374-7.5 7.5-7.5h169.613281c4.140625 0 7.5 3.355469 7.5 7.5 0 4.140626-3.359375 7.5-7.5 7.5zm0 0"
     fill="#ff5770"
     id="path52" />
  <path
     d="m164.835938 257.109375h-21.617188c-4.144531 0-7.5-3.355469-7.5-7.5 0-4.140625 3.355469-7.5 7.5-7.5h21.617188c4.140624 0 7.5 3.359375 7.5 7.5 0 4.144531-3.359376 7.5-7.5 7.5zm0 0"
     fill="#ff5770"
     id="path54" />
  <path
     d="m367.042969 257.109375h-169.613281c-4.140626 0-7.5-3.355469-7.5-7.5 0-4.140625 3.359374-7.5 7.5-7.5h169.613281c4.140625 0 7.5 3.359375 7.5 7.5 0 4.144531-3.359375 7.5-7.5 7.5zm0 0"
     fill="#ff5770"
     id="path56" />
  <path
     d="m164.835938 292.402344h-21.617188c-4.144531 0-7.5-3.355469-7.5-7.5 0-4.140625 3.355469-7.5 7.5-7.5h21.617188c4.140624 0 7.5 3.359375 7.5 7.5 0 4.144531-3.359376 7.5-7.5 7.5zm0 0"
     fill="#ff5770"
     id="path58" />
  <path
     d="m367.042969 292.402344h-169.613281c-4.140626 0-7.5-3.355469-7.5-7.5 0-4.140625 3.359374-7.5 7.5-7.5h169.613281c4.140625 0 7.5 3.359375 7.5 7.5 0 4.144531-3.359375 7.5-7.5 7.5zm0 0"
     fill="#ff5770"
     id="path60" />
</svg>
